<?xml version="1.0" encoding="utf-8"?>
<!-- Generator: Adobe Illustrator 18.0.0, SVG Export Plug-In . SVG Version: 6.00 Build 0)  -->
<!DOCTYPE svg PUBLIC "-//W3C//DTD SVG 1.1//EN" "http://www.w3.org/Graphics/SVG/1.1/DTD/svg11.dtd">
<svg version="1.1" id="图层_1" xmlns="http://www.w3.org/2000/svg" xmlns:xlink="http://www.w3.org/1999/xlink" x="0px" y="0px"
	 viewBox="0 0 42.9 42.9" enable-background="new 0 0 42.9 42.9" xml:space="preserve">
<path fill-rule="evenodd" clip-rule="evenodd" fill="#7B7B7B" d="M33.4,22.4v-2h5v2H33.4z M29.5,12.9L33,9.4l1.4,1.4l-3.5,3.5
	L29.5,12.9z M21.4,5.4h2v5h-2V5.4z M32.4,21.4c0,5.5-4.5,10-10,10c-5.5,0-10-4.5-10-10c0-5.5,4.5-10,10-10
	C28,11.4,32.4,15.9,32.4,21.4z M14.4,21.4c0,4.4,3.6,8,8,8c4.4,0,8-3.6,8-8c0-4.4-3.6-8-8-8C18,13.4,14.4,17,14.4,21.4z M10.4,10.8
	l1.4-1.4l3.5,3.5l-1.4,1.4L10.4,10.8z M11.4,22.4h-5v-2h5V22.4z M15.4,29.9l-3.5,3.5L10.4,32l3.5-3.5L15.4,29.9z M23.4,37.4h-2v-5h2
	V37.4z M34.5,32L33,33.5l-3.5-3.5l1.4-1.4L34.5,32z"/>
</svg>
