<?xml version="1.0" encoding="utf-8"?>
<!-- Generator: Adobe Illustrator 18.0.0, SVG Export Plug-In . SVG Version: 6.00 Build 0)  -->
<!DOCTYPE svg PUBLIC "-//W3C//DTD SVG 1.1//EN" "http://www.w3.org/Graphics/SVG/1.1/DTD/svg11.dtd">
<svg version="1.1" id="图层_1" xmlns="http://www.w3.org/2000/svg" xmlns:xlink="http://www.w3.org/1999/xlink" x="0px" y="0px"
	 viewBox="0 0 42.9 42.9" enable-background="new 0 0 42.9 42.9" xml:space="preserve">
<path fill-rule="evenodd" clip-rule="evenodd" fill="#727373" d="M27.5,18.4v-2h8v2H27.5z M27.5,10.4h8v2h-8V10.4z M28.5,28.9
	c0,4.7-3.8,8.5-8.5,8.5s-8.5-3.8-8.5-8.5c0-3.1,1.6-5.8,4.1-7.2c0-0.2-0.1-0.5-0.1-0.8v-11c0-2.5,2-4.5,4.5-4.5c2.5,0,4.5,2,4.5,4.5
	v11c0,0.3,0,0.5-0.1,0.8C26.9,23.2,28.5,25.9,28.5,28.9z M22.5,22.9v-5.5h-5v5.5c-2.3,1-4,3.3-4,6c0,3.6,2.9,6.5,6.5,6.5
	c3.6,0,6.5-2.9,6.5-6.5C26.5,26.2,24.8,23.9,22.5,22.9z"/>
</svg>
