<svg xmlns:xlink="http://www.w3.org/1999/xlink" version="1.1" style="font-family:'lucida grande', 'lucida sans unicode', arial, helvetica, sans-serif;font-size:12px;" xmlns="http://www.w3.org/2000/svg" width="850" height="400"><desc>Created with Highstock 2.1.9</desc><defs><clipPath id="highcharts-7"><rect x="0" y="0" width="226" height="702"></rect></clipPath></defs><rect x="0" y="0" width="850" height="400" strokeWidth="0" fill="#FFFFFF" class=" highcharts-background"></rect><g class="highcharts-grid" ></g><g class="highcharts-grid" ><path fill="none" d="M 137.5 116 L 137.5 342" stroke="#D8D8D8" stroke-width="1"  opacity="1"></path><path fill="none" d="M 207.5 116 L 207.5 342" stroke="#D8D8D8" stroke-width="1"  opacity="1"></path><path fill="none" d="M 277.5 116 L 277.5 342" stroke="#D8D8D8" stroke-width="1"  opacity="1"></path><path fill="none" d="M 348.5 116 L 348.5 342" stroke="#D8D8D8" stroke-width="1"  opacity="1"></path><path fill="none" d="M 418.5 116 L 418.5 342" stroke="#D8D8D8" stroke-width="1"  opacity="1"></path><path fill="none" d="M 488.5 116 L 488.5 342" stroke="#D8D8D8" stroke-width="1"  opacity="1"></path><path fill="none" d="M 558.5 116 L 558.5 342" stroke="#D8D8D8" stroke-width="1"  opacity="1"></path><path fill="none" d="M 628.5 116 L 628.5 342" stroke="#D8D8D8" stroke-width="1"  opacity="1"></path><path fill="none" d="M 699.5 116 L 699.5 342" stroke="#D8D8D8" stroke-width="1"  opacity="1"></path><path fill="none" d="M 769.5 116 L 769.5 342" stroke="#D8D8D8" stroke-width="1"  opacity="1"></path><path fill="none" d="M 840.5 116 L 840.5 342" stroke="#D8D8D8" stroke-width="1"  opacity="1"></path></g><g class="highcharts-grid" ><path fill="none" d="M 137.5 116 L 137.5 342" stroke="#D8D8D8" stroke-width="1"  opacity="1"></path><path fill="none" d="M 207.5 116 L 207.5 342" stroke="#D8D8D8" stroke-width="1"  opacity="1"></path><path fill="none" d="M 277.5 116 L 277.5 342" stroke="#D8D8D8" stroke-width="1"  opacity="1"></path><path fill="none" d="M 348.5 116 L 348.5 342" stroke="#D8D8D8" stroke-width="1"  opacity="1"></path><path fill="none" d="M 418.5 116 L 418.5 342" stroke="#D8D8D8" stroke-width="1"  opacity="1"></path><path fill="none" d="M 488.5 116 L 488.5 342" stroke="#D8D8D8" stroke-width="1"  opacity="1"></path><path fill="none" d="M 558.5 116 L 558.5 342" stroke="#D8D8D8" stroke-width="1"  opacity="1"></path><path fill="none" d="M 628.5 116 L 628.5 342" stroke="#D8D8D8" stroke-width="1"  opacity="1"></path><path fill="none" d="M 699.5 116 L 699.5 342" stroke="#D8D8D8" stroke-width="1"  opacity="1"></path><path fill="none" d="M 769.5 116 L 769.5 342" stroke="#D8D8D8" stroke-width="1"  opacity="1"></path><path fill="none" d="M 840.5 116 L 840.5 342" stroke="#D8D8D8" stroke-width="1"  opacity="1"></path></g><g class="highcharts-grid" ></g><g class="highcharts-axis" ><path fill="none" d="M 138 135.5 L 128 135.5" stroke="#C0D0E0" stroke-width="1" opacity="1"></path><path fill="none" d="M 138 154.5 L 128 154.5" stroke="#C0D0E0" stroke-width="1" opacity="1"></path><path fill="none" d="M 138 172.5 L 128 172.5" stroke="#C0D0E0" stroke-width="1" opacity="1"></path><path fill="none" d="M 138 191.5 L 128 191.5" stroke="#C0D0E0" stroke-width="1" opacity="1"></path><path fill="none" d="M 138 210.5 L 128 210.5" stroke="#C0D0E0" stroke-width="1" opacity="1"></path><path fill="none" d="M 138 229.5 L 128 229.5" stroke="#C0D0E0" stroke-width="1" opacity="1"></path><path fill="none" d="M 138 248.5 L 128 248.5" stroke="#C0D0E0" stroke-width="1" opacity="1"></path><path fill="none" d="M 138 267.5 L 128 267.5" stroke="#C0D0E0" stroke-width="1" opacity="1"></path><path fill="none" d="M 138 286.5 L 128 286.5" stroke="#C0D0E0" stroke-width="1" opacity="1"></path><path fill="none" d="M 138 304.5 L 128 304.5" stroke="#C0D0E0" stroke-width="1" opacity="1"></path><path fill="none" d="M 138 323.5 L 128 323.5" stroke="#C0D0E0" stroke-width="1" opacity="1"></path><path fill="none" d="M 138 342.5 L 128 342.5" stroke="#C0D0E0" stroke-width="1" opacity="1"></path><path fill="none" d="M 138 115.5 L 128 115.5" stroke="#C0D0E0" stroke-width="1" opacity="1"></path><path fill="none" d="M 137.5 116 L 137.5 342" stroke="#C0D0E0" stroke-width="1"  visibility="visible"></path></g><g class="highcharts-axis" ><text x="489"  text-anchor="middle" transform="translate(0,0)" class=" highcharts-yaxis-title" style="color:#707070;fill:#707070;" visibility="visible" y="382">Values</text></g><g class="highcharts-axis" ><text x="489"  text-anchor="middle" transform="translate(0,0)" class=" highcharts-yaxis-title" style="color:#aa4143;fill:#aa4143;" visibility="visible" y="81">排气压力</text></g><g class="highcharts-axis" ><text x="489"  text-anchor="middle" transform="translate(0,0)" class=" highcharts-yaxis-title" style="color:#aa4243;fill:#aa4243;" visibility="visible" y="61">制冷出水温度</text></g><g class="highcharts-series-group" ><g class="highcharts-series highcharts-series-0" visibility="visible"  transform="translate(840,342) rotate(90) scale(-1,1) scale(1 1)" width="702" height="226" clip-path="url(#highcharts-7)"><path fill="none" d="M 216.58333333333334 702 C 216.58333333333334 702 205.28333333333336 702 197.75 702 C 190.21666666666667 702 186.45 702 178.91666666666669 702 C 171.38333333333335 702 167.61666666666667 702 160.08333333333334 702 C 152.55 702 148.78333333333336 702 141.25000000000003 702 C 133.7166666666667 702 129.95 702 122.41666666666667 702 C 114.88333333333333 702 111.11666666666667 702 103.58333333333333 702 C 96.05 702 92.28333333333335 702 84.75000000000001 702 C 77.21666666666667 702 73.45 702 65.91666666666667 702 C 58.38333333333334 702 54.616666666666674 702 47.083333333333336 702 C 39.55000000000001 702 35.783333333333346 702 28.25000000000002 702 C 20.716666666666683 702 9.416666666666677 702 9.416666666666677 702" stroke="#AA4143" stroke-width="2"  stroke-linejoin="round" stroke-linecap="round"></path></g><g class="highcharts-markers highcharts-series-0" visibility="visible"  transform="translate(840,342) rotate(90) scale(-1,1) scale(1 1)" width="702" height="226" clip-path="none"><path fill="#AA4143" d="M 9 698 C 14.328 698 14.328 706 9 706 C 3.6719999999999997 706 3.6719999999999997 698 9 698 Z"></path><path fill="#AA4143" d="M 28 698 C 33.328 698 33.328 706 28 706 C 22.672 706 22.672 698 28 698 Z"></path><path fill="#AA4143" d="M 47 698 C 52.328 698 52.328 706 47 706 C 41.672 706 41.672 698 47 698 Z"></path><path fill="#AA4143" d="M 65 698 C 70.328 698 70.328 706 65 706 C 59.672 706 59.672 698 65 698 Z"></path><path fill="#AA4143" d="M 84 698 C 89.328 698 89.328 706 84 706 C 78.672 706 78.672 698 84 698 Z"></path><path fill="#AA4143" d="M 103 698 C 108.328 698 108.328 706 103 706 C 97.672 706 97.672 698 103 698 Z"></path><path fill="#AA4143" d="M 122 698 C 127.328 698 127.328 706 122 706 C 116.672 706 116.672 698 122 698 Z"></path><path fill="#AA4143" d="M 141 698 C 146.328 698 146.328 706 141 706 C 135.672 706 135.672 698 141 698 Z"></path><path fill="#AA4143" d="M 160 698 C 165.328 698 165.328 706 160 706 C 154.672 706 154.672 698 160 698 Z"></path><path fill="#AA4143" d="M 178 698 C 183.328 698 183.328 706 178 706 C 172.672 706 172.672 698 178 698 Z"></path><path fill="#AA4143" d="M 197 698 C 202.328 698 202.328 706 197 706 C 191.672 706 191.672 698 197 698 Z"></path><path fill="#AA4143" d="M 216 698 C 221.328 698 221.328 706 216 706 C 210.672 706 210.672 698 216 698 Z"></path></g><g class="highcharts-series highcharts-series-1" visibility="visible"  transform="translate(840,342) rotate(90) scale(-1,1) scale(1 1)" width="702" height="226" clip-path="url(#highcharts-7)"><path fill="none" d="M 216.58333333333334 442.2600000000018 C 216.58333333333334 442.2600000000018 205.28333333333336 280.799999999999 197.75 280.799999999999 C 190.21666666666667 280.799999999999 186.45 358.0199999999986 178.91666666666669 358.0199999999986 C 171.38333333333335 358.0199999999986 167.61666666666667 299.05200000000036 160.08333333333334 273.7800000000004 C 152.55 248.50800000000046 148.78333333333336 231.65999999999883 141.25000000000003 231.65999999999883 C 133.7166666666667 231.65999999999883 129.95 231.65999999999883 122.41666666666667 231.65999999999883 C 114.88333333333333 231.65999999999883 111.11666666666667 254.12399999999826 103.58333333333333 308.8799999999984 C 96.05 363.63599999999843 92.28333333333335 443.6639999999986 84.75000000000001 505.4399999999992 C 77.21666666666667 567.2159999999999 73.45 603.7200000000046 65.91666666666667 617.7600000000018 C 58.38333333333334 631.799999999999 54.616666666666674 631.799999999999 47.083333333333336 631.799999999999 C 39.55000000000001 631.799999999999 35.783333333333346 630.3959999999983 28.25000000000002 610.7399999999982 C 20.716666666666683 591.0839999999981 9.416666666666677 533.5199999999986 9.416666666666677 533.5199999999986" stroke="#AA4243" stroke-width="2"  stroke-linejoin="round" stroke-linecap="round"></path></g><g class="highcharts-markers highcharts-series-1" visibility="visible"  transform="translate(840,342) rotate(90) scale(-1,1) scale(1 1)" width="702" height="226" clip-path="none"><path fill="#AA4243" d="M 9 529.5199999999986 L 13 533.5199999999986 9 537.5199999999986 5 533.5199999999986 Z"></path><path fill="#AA4243" d="M 28 606.7399999999982 L 32 610.7399999999982 28 614.7399999999982 24 610.7399999999982 Z"></path><path fill="#AA4243" d="M 47 627.799999999999 L 51 631.799999999999 47 635.799999999999 43 631.799999999999 Z"></path><path fill="#AA4243" d="M 65 613.7600000000018 L 69 617.7600000000018 65 621.7600000000018 61 617.7600000000018 Z"></path><path fill="#AA4243" d="M 84 501.4399999999992 L 88 505.4399999999992 84 509.4399999999992 80 505.4399999999992 Z"></path><path fill="#AA4243" d="M 103 304.8799999999984 L 107 308.8799999999984 103 312.8799999999984 99 308.8799999999984 Z"></path><path fill="#AA4243" d="M 122 227.65999999999883 L 126 231.65999999999883 122 235.65999999999883 118 231.65999999999883 Z"></path><path fill="#AA4243" d="M 141 227.65999999999883 L 145 231.65999999999883 141 235.65999999999883 137 231.65999999999883 Z"></path><path fill="#AA4243" d="M 160 269.7800000000004 L 164 273.7800000000004 160 277.7800000000004 156 273.7800000000004 Z"></path><path fill="#AA4243" d="M 178 354.0199999999986 L 182 358.0199999999986 178 362.0199999999986 174 358.0199999999986 Z"></path><path fill="#AA4243" d="M 197 276.799999999999 L 201 280.799999999999 197 284.799999999999 193 280.799999999999 Z"></path><path fill="#AA4243" d="M 216 438.2600000000018 L 220 442.2600000000018 216 446.2600000000018 212 442.2600000000018 Z"></path></g></g><text x="425" text-anchor="middle" class="highcharts-title"  style="color:#333333;font-size:18px;fill:#333333;width:786px;" y="24">地源热泵运行记录表</text><g class="highcharts-legend"  transform="translate(130,90)"><rect x="0" y="0" width="109" height="41" strokeWidth="0" fill="#FFFFFF" visibility="visible"></rect><g ><g><g class="highcharts-legend-item"  transform="translate(8,3)"><path fill="none" d="M 0 11 L 16 11" stroke="#AA4143" stroke-width="2"></path><path fill="#AA4143" d="M 8 7 C 13.328 7 13.328 15 8 15 C 2.6719999999999997 15 2.6719999999999997 7 8 7 Z"></path><text x="21" style="color:#333333;font-size:12px;font-weight:bold;cursor:pointer;fill:#333333;" text-anchor="start"  y="15">排气压力</text></g><g class="highcharts-legend-item"  transform="translate(8,18)"><path fill="none" d="M 0 11 L 16 11" stroke="#AA4243" stroke-width="2"></path><path fill="#AA4243" d="M 8 7 L 12 11 8 15 4 11 Z"></path><text x="21" y="15" style="color:#333333;font-size:12px;font-weight:bold;cursor:pointer;fill:#333333;" text-anchor="start" >制冷出水温度</text></g></g></g></g><g class="highcharts-axis-labels highcharts-xaxis-labels" ><text x="123" style="color:#606060;cursor:default;font-size:11px;fill:#606060;width:271px;text-overflow:clip;" text-anchor="end" transform="translate(0,0)" y="129" opacity="1"><tspan>2014/12/29 0:00</tspan></text><text x="123" style="color:#606060;cursor:default;font-size:11px;fill:#606060;width:271px;text-overflow:clip;" text-anchor="end" transform="translate(0,0)" y="148" opacity="1"><tspan>2014-12-29 01:00</tspan></text><text x="123" style="color:#606060;cursor:default;font-size:11px;fill:#606060;width:271px;text-overflow:clip;" text-anchor="end" transform="translate(0,0)" y="167" opacity="1"><tspan>2014-12-29 02:00</tspan></text><text x="123" style="color:#606060;cursor:default;font-size:11px;fill:#606060;width:271px;text-overflow:clip;" text-anchor="end" transform="translate(0,0)" y="185" opacity="1"><tspan>2014-12-29 03:00</tspan></text><text x="123" style="color:#606060;cursor:default;font-size:11px;fill:#606060;width:271px;text-overflow:clip;" text-anchor="end" transform="translate(0,0)" y="204" opacity="1"><tspan>2014-12-29 04:00</tspan></text><text x="123" style="color:#606060;cursor:default;font-size:11px;fill:#606060;width:271px;text-overflow:clip;" text-anchor="end" transform="translate(0,0)" y="223" opacity="1"><tspan>2014-12-29 05:00</tspan></text><text x="123" style="color:#606060;cursor:default;font-size:11px;fill:#606060;width:271px;text-overflow:clip;" text-anchor="end" transform="translate(0,0)" y="242" opacity="1"><tspan>2014-12-29 06:00</tspan></text><text x="123" style="color:#606060;cursor:default;font-size:11px;fill:#606060;width:271px;text-overflow:clip;" text-anchor="end" transform="translate(0,0)" y="261" opacity="1"><tspan>2014-12-29 07:00</tspan></text><text x="123" style="color:#606060;cursor:default;font-size:11px;fill:#606060;width:271px;text-overflow:clip;" text-anchor="end" transform="translate(0,0)" y="280" opacity="1"><tspan>2014-12-29 08:00</tspan></text><text x="123" style="color:#606060;cursor:default;font-size:11px;fill:#606060;width:271px;text-overflow:clip;" text-anchor="end" transform="translate(0,0)" y="298" opacity="1"><tspan>2014-12-29 09:00</tspan></text><text x="123" style="color:#606060;cursor:default;font-size:11px;fill:#606060;width:271px;text-overflow:clip;" text-anchor="end" transform="translate(0,0)" y="317" opacity="1"><tspan>2014-12-29 10:00</tspan></text><text x="123" style="color:#606060;cursor:default;font-size:11px;fill:#606060;width:271px;text-overflow:clip;" text-anchor="end" transform="translate(0,0)" y="336" opacity="1"><tspan>2014-12-29 11:00</tspan></text></g><g class="highcharts-axis-labels highcharts-yaxis-labels" ><text x="138" style="color:#606060;cursor:default;font-size:11px;fill:#606060;width:60px;text-overflow:clip;" text-anchor="middle" transform="translate(0,0)" y="361" opacity="1">1000</text><text x="208.2" style="color:#606060;cursor:default;font-size:11px;fill:#606060;width:60px;text-overflow:clip;" text-anchor="middle" transform="translate(0,0)" y="361" opacity="1">1001</text><text x="278.4" style="color:#606060;cursor:default;font-size:11px;fill:#606060;width:60px;text-overflow:clip;" text-anchor="middle" transform="translate(0,0)" y="361" opacity="1">1002</text><text x="348.6" style="color:#606060;cursor:default;font-size:11px;fill:#606060;width:60px;text-overflow:clip;" text-anchor="middle" transform="translate(0,0)" y="361" opacity="1">1003</text><text x="418.8" style="color:#606060;cursor:default;font-size:11px;fill:#606060;width:60px;text-overflow:clip;" text-anchor="middle" transform="translate(0,0)" y="361" opacity="1">1004</text><text x="489" style="color:#606060;cursor:default;font-size:11px;fill:#606060;width:60px;text-overflow:clip;" text-anchor="middle" transform="translate(0,0)" y="361" opacity="1">1005</text><text x="559.2" style="color:#606060;cursor:default;font-size:11px;fill:#606060;width:60px;text-overflow:clip;" text-anchor="middle" transform="translate(0,0)" y="361" opacity="1">1006</text><text x="629.4000000000001" style="color:#606060;cursor:default;font-size:11px;fill:#606060;width:60px;text-overflow:clip;" text-anchor="middle" transform="translate(0,0)" y="361" opacity="1">1007</text><text x="699.6" style="color:#606060;cursor:default;font-size:11px;fill:#606060;width:60px;text-overflow:clip;" text-anchor="middle" transform="translate(0,0)" y="361" opacity="1">1008</text><text x="769.8000000000001" style="color:#606060;cursor:default;font-size:11px;fill:#606060;width:60px;text-overflow:clip;" text-anchor="middle" transform="translate(0,0)" y="361" opacity="1">1009</text><text x="824.828125" style="color:#606060;cursor:default;font-size:11px;fill:#606060;width:60px;text-overflow:clip;" text-anchor="middle" transform="translate(0,0)" y="361" opacity="1">1010</text></g><g class="highcharts-axis-labels highcharts-yaxis-labels" ><text x="138" style="color:#aa4143;cursor:default;font-size:11px;fill:#aa4143;width:60px;text-overflow:clip;" text-anchor="middle" transform="translate(0,0)" y="101" opacity="1">NaN</text><text x="208.200000000001" style="color:#aa4143;cursor:default;font-size:11px;fill:#aa4143;width:60px;text-overflow:clip;" text-anchor="middle" transform="translate(0,0)" y="101" opacity="1">NaN</text><text x="278.400000000002" style="color:#aa4143;cursor:default;font-size:11px;fill:#aa4143;width:60px;text-overflow:clip;" text-anchor="middle" transform="translate(0,0)" y="101" opacity="1">NaN</text><text x="348.599999999998" style="color:#aa4143;cursor:default;font-size:11px;fill:#aa4143;width:60px;text-overflow:clip;" text-anchor="middle" transform="translate(0,0)" y="101" opacity="1">NaN</text><text x="418.799999999999" style="color:#aa4143;cursor:default;font-size:11px;fill:#aa4143;width:60px;text-overflow:clip;" text-anchor="middle" transform="translate(0,0)" y="101" opacity="1">NaN</text><text x="489" style="color:#aa4143;cursor:default;font-size:11px;fill:#aa4143;width:60px;text-overflow:clip;" text-anchor="middle" transform="translate(0,0)" y="101" opacity="1">NaN</text><text x="559.200000000001" style="color:#aa4143;cursor:default;font-size:11px;fill:#aa4143;width:60px;text-overflow:clip;" text-anchor="middle" transform="translate(0,0)" y="101" opacity="1">NaN</text><text x="629.400000000002" style="color:#aa4143;cursor:default;font-size:11px;fill:#aa4143;width:60px;text-overflow:clip;" text-anchor="middle" transform="translate(0,0)" y="101" opacity="1">NaN</text><text x="699.599999999998" style="color:#aa4143;cursor:default;font-size:11px;fill:#aa4143;width:60px;text-overflow:clip;" text-anchor="middle" transform="translate(0,0)" y="101" opacity="1">NaN</text><text x="769.799999999999" style="color:#aa4143;cursor:default;font-size:11px;fill:#aa4143;width:60px;text-overflow:clip;" text-anchor="middle" transform="translate(0,0)" y="101" opacity="1">NaN</text><text x="827.828125" style="color:#aa4143;cursor:default;font-size:11px;fill:#aa4143;width:60px;text-overflow:clip;" text-anchor="middle" transform="translate(0,0)" y="101" opacity="1">NaN</text></g><g class="highcharts-axis-labels highcharts-yaxis-labels" ></g><g class="highcharts-tooltip"  style="cursor:default;padding:0;pointer-events:none;white-space:nowrap;" transform="translate(0,-9999)"><path fill="none" d="M 3.5 0.5 L 13.5 0.5 C 16.5 0.5 16.5 0.5 16.5 3.5 L 16.5 13.5 C 16.5 16.5 16.5 16.5 13.5 16.5 L 3.5 16.5 C 0.5 16.5 0.5 16.5 0.5 13.5 L 0.5 3.5 C 0.5 0.5 0.5 0.5 3.5 0.5"  stroke="black" stroke-opacity="0.049999999999999996" stroke-width="5" transform="translate(1, 1)"></path><path fill="none" d="M 3.5 0.5 L 13.5 0.5 C 16.5 0.5 16.5 0.5 16.5 3.5 L 16.5 13.5 C 16.5 16.5 16.5 16.5 13.5 16.5 L 3.5 16.5 C 0.5 16.5 0.5 16.5 0.5 13.5 L 0.5 3.5 C 0.5 0.5 0.5 0.5 3.5 0.5"  stroke="black" stroke-opacity="0.09999999999999999" stroke-width="3" transform="translate(1, 1)"></path><path fill="none" d="M 3.5 0.5 L 13.5 0.5 C 16.5 0.5 16.5 0.5 16.5 3.5 L 16.5 13.5 C 16.5 16.5 16.5 16.5 13.5 16.5 L 3.5 16.5 C 0.5 16.5 0.5 16.5 0.5 13.5 L 0.5 3.5 C 0.5 0.5 0.5 0.5 3.5 0.5"  stroke="black" stroke-opacity="0.15" stroke-width="1" transform="translate(1, 1)"></path><path fill="rgb(249, 249, 249)" fill-opacity=" .85" d="M 3.5 0.5 L 13.5 0.5 C 16.5 0.5 16.5 0.5 16.5 3.5 L 16.5 13.5 C 16.5 16.5 16.5 16.5 13.5 16.5 L 3.5 16.5 C 0.5 16.5 0.5 16.5 0.5 13.5 L 0.5 3.5 C 0.5 0.5 0.5 0.5 3.5 0.5"></path><text x="8"  style="font-size:12px;color:#333333;fill:#333333;" y="20"></text></g><text x="840" text-anchor="end"  style="cursor:pointer;color:#909090;font-size:9px;fill:#909090;" y="395">Highcharts.com</text></svg>